# xmcd CD database file
#
# Track frame offsets:
#	150
#	32650
#	75830
#	87445
#	113500
#	130255
#	153270
#	186387
#	232702
#	241305
#
# Disc length: 3780 seconds
#
# Revision: 0
# Processed by: cddbd v1.4PL0 Copyright (c) Steve Scherf et al.
# Submitted via: CDex 1.50beta10
#
DISCID=680ec20a
DTITLE=Various Artist - Freeway
DYEAR=1900
DGENRE=Jazz
TTITLE0=Freddie Hubbard/Open Sesame
TTITLE1=Art Brakey and The Jazz Messengers/Moanin'
TTITLE2=Miles Davis/Move
TTITLE3=Sonny Rollins/Tune Up
TTITLE4=Nat King Cole/Route 66
TTITLE5=Kenny Dorham/Afrodisia
TTITLE6=Kenny Drew/Undercurrent
TTITLE7=Lee Morgan/The Sidewinder
TTITLE8=June Christy/It Don't Mean A Thing
TTITLE9=Sonny Clark/Cool Struttin'
EXTD=
EXTT0=
EXTT1=
EXTT2=
EXTT3=
EXTT4=
EXTT5=
EXTT6=
EXTT7=
EXTT8=
EXTT9=
PLAYORDER=
